<?xml version="1.0" encoding="UTF-8"?>
<svg xmlns="http://www.w3.org/2000/svg" xmlns:xlink="http://www.w3.org/1999/xlink" width="2500px" height="2500px" viewBox="0 0 2500 2500" version="1.1">
<g id="surface1">
<path style=" stroke:none;fill-rule:nonzero;fill:rgb(98.823529%,98.823529%,98.823529%);fill-opacity:1;" d="M 439.726562 1025.3125 C 453.246094 1031.480469 462.03125 1039.769531 472.8125 1050 C 490.484375 1066.402344 508.394531 1082.082031 527.1875 1097.1875 C 551.398438 1116.773438 574.445312 1137.382812 597.363281 1158.457031 C 612.941406 1172.683594 628.882812 1186.390625 645 1200 C 644.570312 1214.5625 642.105469 1222.839844 631.875 1233.339844 C 623.082031 1240.804688 614.183594 1248.023438 605 1255 C 611.519531 1269.808594 617.894531 1278.789062 630.625 1288.75 C 635.367188 1292.460938 640.113281 1296.175781 645 1300 C 642.871094 1321.757812 628.640625 1332.359375 613.125 1345.9375 C 610.441406 1348.339844 607.757812 1350.742188 604.996094 1353.21875 C 583.105469 1372.664062 560.578125 1391.304688 537.695312 1409.570312 C 522.457031 1422.089844 508.261719 1435.535156 494.257812 1449.414062 C 481.433594 1457.152344 474.128906 1453.375 460 1450 C 459.003906 1429.992188 458.28125 1409.996094 457.804688 1389.972656 C 457.601562 1383.175781 457.332031 1376.382812 456.984375 1369.589844 C 454.171875 1313.328125 454.171875 1313.328125 468.730469 1292.523438 C 493.835938 1270 493.835938 1270 510 1270 C 510 1266.699219 510 1263.398438 510 1260 C 518.90625 1251.992188 528.125 1244.332031 537.5 1236.875 C 542.605469 1232.789062 547.710938 1228.703125 552.96875 1224.492188 C 556.9375 1221.359375 560.910156 1218.226562 565 1215 C 552.757812 1184.773438 524.078125 1165.796875 500 1145 C 497.453125 1142.789062 494.90625 1140.582031 492.28125 1138.304688 C 464.640625 1110.902344 464.640625 1110.902344 430 1100 C 385.316406 1131.25 343.097656 1171.152344 305 1210 C 309.125 1213.09375 313.25 1216.1875 317.5 1219.375 C 323.6875 1224.632812 323.6875 1224.632812 330 1230 C 330 1233.300781 330 1236.601562 330 1240 C 333.09375 1241.546875 336.1875 1243.09375 339.375 1244.6875 C 346.25 1248.125 353.125 1251.5625 360 1255 C 360 1258.300781 360 1261.601562 360 1265 C 362.679688 1266.132812 365.363281 1267.269531 368.125 1268.4375 C 383.933594 1277.175781 398.25 1286.210938 410 1300 C 413.40625 1317.066406 413.40625 1317.066406 412.929688 1336.347656 C 412.886719 1339.753906 412.84375 1343.15625 412.800781 1346.664062 C 412.632812 1357.472656 412.257812 1368.261719 411.875 1379.0625 C 411.722656 1386.414062 411.585938 1393.769531 411.464844 1401.125 C 411.136719 1419.089844 410.617188 1437.042969 410 1455 C 384.933594 1451.167969 371.230469 1440.085938 352.8125 1423.4375 C 332.675781 1405.53125 312.632812 1389.785156 290 1375 C 281.554688 1366.777344 273.234375 1358.429688 265 1350 C 251.808594 1338.167969 238.429688 1326.5625 225 1315 C 231.574219 1300.460938 238.667969 1289.96875 250 1278.75 C 253.867188 1274.84375 253.867188 1274.84375 257.8125 1270.859375 C 265 1265 265 1265 275 1265 C 260.144531 1245.003906 244.351562 1230.394531 225 1215 C 244.496094 1171.058594 292.332031 1137.808594 330 1110 C 334.949219 1108.351562 339.898438 1106.699219 345 1105 C 345 1101.699219 345 1098.398438 345 1095 C 353.4375 1087.597656 353.4375 1087.597656 365 1079.0625 C 384.921875 1064.160156 403.054688 1048.277344 420.878906 1030.9375 C 430 1025 430 1025 439.726562 1025.3125 Z M 300 1305 C 306.84375 1320.746094 314.375 1330.238281 327.5 1341.25 C 330.542969 1343.855469 333.585938 1346.457031 336.71875 1349.140625 C 344.667969 1355.960938 344.667969 1355.960938 355 1355 C 356.648438 1358.300781 358.300781 1361.601562 360 1365 C 361.816406 1349.949219 363.058594 1339.585938 360 1325 C 350.03125 1312.492188 338.722656 1303.195312 325 1295 C 313.382812 1294.074219 313.382812 1294.074219 300 1305 Z M 550 1295 C 537.082031 1303.996094 525.328125 1313.066406 515 1325 C 512.066406 1343.769531 512.066406 1343.769531 515 1360 C 540.71875 1343.480469 540.71875 1343.480469 565 1325 C 565 1321.699219 565 1318.398438 565 1315 C 568.300781 1315 571.601562 1315 575 1315 C 575 1311.699219 575 1308.398438 575 1305 C 562.625 1300.050781 562.625 1300.050781 550 1295 Z M 550 1295 "/>
<path style=" stroke:none;fill-rule:nonzero;fill:rgb(99.607843%,99.215686%,99.215686%);fill-opacity:1;" d="M 955 1145 C 969.851562 1145 984.699219 1145 1000 1145 C 1007.863281 1165.363281 1015.695312 1185.738281 1023.5 1206.125 C 1026.15625 1213.058594 1028.824219 1219.992188 1031.5 1226.917969 C 1035.347656 1236.875 1039.160156 1246.84375 1042.96875 1256.816406 C 1045.273438 1262.8125 1047.578125 1268.808594 1049.953125 1274.988281 C 1055 1290 1055 1290 1055 1305 C 1058.300781 1305 1061.601562 1305 1065 1305 C 1066.171875 1298.820312 1067.347656 1292.636719 1068.554688 1286.269531 C 1075.242188 1256.167969 1086.605469 1228.21875 1098.125 1199.6875 C 1100.226562 1194.40625 1102.328125 1189.125 1104.492188 1183.679688 C 1109.632812 1170.773438 1114.800781 1157.882812 1120 1145 C 1134.851562 1145 1149.699219 1145 1165 1145 C 1165 1214.300781 1165 1283.601562 1165 1355 C 1140 1360 1140 1360 1130 1355 C 1130 1307.148438 1130 1259.300781 1130 1210 C 1124.480469 1225.613281 1124.480469 1225.613281 1118.847656 1241.542969 C 1115.214844 1251.597656 1111.546875 1261.636719 1107.875 1271.675781 C 1105.339844 1278.660156 1102.84375 1285.660156 1100.382812 1292.671875 C 1096.84375 1302.75 1093.171875 1312.773438 1089.472656 1322.792969 C 1086.210938 1331.867188 1086.210938 1331.867188 1082.886719 1341.121094 C 1075 1355 1075 1355 1061.59375 1359.511719 C 1057.769531 1359.671875 1053.941406 1359.835938 1050 1360 C 1035.175781 1331.398438 1022.675781 1302.605469 1011.25 1272.5 C 1008.882812 1266.332031 1008.882812 1266.332031 1006.464844 1260.039062 C 1002.625 1250.03125 998.808594 1240.015625 995 1230 C 986.429688 1238.570312 988.847656 1250.023438 988.417969 1261.738281 C 988.207031 1267.136719 988 1272.535156 987.78125 1278.09375 C 987.585938 1283.777344 987.390625 1289.457031 987.1875 1295.3125 C 986.863281 1303.863281 986.863281 1303.863281 986.53125 1312.585938 C 986 1326.726562 985.492188 1340.863281 985 1355 C 975.101562 1355 965.199219 1355 955 1355 C 955 1285.699219 955 1216.398438 955 1145 Z M 985 1200 C 990 1210 990 1210 990 1210 Z M 985 1200 "/>
<path style=" stroke:none;fill-rule:nonzero;fill:rgb(99.607843%,99.215686%,99.215686%);fill-opacity:1;" d="M 1205 1145 C 1223.355469 1144.691406 1241.710938 1144.382812 1260.625 1144.0625 C 1269.222656 1143.859375 1269.222656 1143.859375 1277.992188 1143.648438 C 1305.542969 1143.425781 1326.625 1143.558594 1350 1160 C 1363.367188 1180.050781 1363.550781 1196.421875 1360 1220 C 1350 1235.3125 1350 1235.3125 1340 1245 C 1343.917969 1247.0625 1347.835938 1249.125 1351.875 1251.25 C 1365.894531 1260.59375 1370.15625 1264.152344 1375 1280 C 1376.691406 1298.609375 1376.476562 1311.390625 1369.375 1328.75 C 1354.824219 1346.210938 1339.628906 1353.714844 1316.941406 1356.742188 C 1301.703125 1357.773438 1286.515625 1358.351562 1271.25 1358.75 C 1263.351562 1359.070312 1263.351562 1359.070312 1255.292969 1359.394531 C 1216.480469 1360.738281 1216.480469 1360.738281 1205 1355 C 1205 1285.699219 1205 1216.398438 1205 1145 Z M 1240 1170 C 1240 1191.449219 1240 1212.898438 1240 1235 C 1251.253906 1234.699219 1262.503906 1234.253906 1273.75 1233.75 C 1280.015625 1233.519531 1286.28125 1233.285156 1292.734375 1233.046875 C 1312.117188 1229.625 1318.546875 1225.753906 1330 1210 C 1329.191406 1193.042969 1327.085938 1187.085938 1315 1175 C 1303.6875 1172.679688 1303.6875 1172.679688 1290.9375 1171.875 C 1286.675781 1171.5 1282.417969 1171.128906 1278.027344 1170.742188 C 1265.371094 1170.019531 1252.679688 1170 1240 1170 Z M 1240 1260 C 1240 1283.101562 1240 1306.199219 1240 1330 C 1251.984375 1330.542969 1263.945312 1330.9375 1275.9375 1331.25 C 1279.304688 1331.417969 1282.671875 1331.585938 1286.140625 1331.757812 C 1304.269531 1332.113281 1314.234375 1330.472656 1329.785156 1320.878906 C 1341.371094 1310.570312 1341.371094 1310.570312 1342.5 1294.6875 C 1341.058594 1280.296875 1341.058594 1280.296875 1334.0625 1270.9375 C 1314.355469 1258.023438 1291.28125 1259.4375 1268.4375 1259.6875 C 1259.054688 1259.789062 1249.667969 1259.894531 1240 1260 Z M 1240 1260 "/>
<path style=" stroke:none;fill-rule:nonzero;fill:rgb(99.607843%,99.215686%,99.215686%);fill-opacity:1;" d="M 1570 1155 C 1593.902344 1176.511719 1608.347656 1198.910156 1611.679688 1231.347656 C 1612.121094 1271.542969 1611.191406 1302.417969 1582.871094 1332.597656 C 1553.902344 1358.570312 1527.242188 1362.039062 1489.6875 1361.210938 C 1461.03125 1358.847656 1443.117188 1349.765625 1423.4375 1328.4375 C 1397.496094 1295.09375 1396.652344 1261.050781 1400 1220 C 1405.28125 1191.1875 1417.804688 1173.675781 1440.9375 1155.9375 C 1478.050781 1131.625 1532.078125 1131.808594 1570 1155 Z M 1450 1190 C 1430 1216.667969 1431.148438 1248.066406 1435 1280 C 1441.097656 1298.683594 1450.941406 1311.1875 1465.3125 1324.6875 C 1488.65625 1333.132812 1510.558594 1334.398438 1535 1330 C 1555.15625 1318.792969 1567.683594 1306.949219 1575 1285 C 1579.8125 1239.164062 1579.8125 1239.164062 1566.5625 1196.5625 C 1546.703125 1176.703125 1533.492188 1169.121094 1505.3125 1167.8125 C 1481.585938 1168.625 1467.808594 1173.496094 1450 1190 Z M 1450 1190 "/>
<path style=" stroke:none;fill-rule:nonzero;fill:rgb(99.607843%,99.215686%,99.215686%);fill-opacity:1;" d="M 1790 1155 C 1810 1175.511719 1810 1175.511719 1810 1195 C 1796.5625 1199.0625 1796.5625 1199.0625 1780 1200 C 1771.667969 1191.667969 1763.332031 1183.332031 1755 1175 C 1731.53125 1167.582031 1708.789062 1169.648438 1685 1175 C 1685 1186.550781 1685 1198.101562 1685 1210 C 1711.449219 1224.28125 1737.964844 1232.449219 1766.710938 1240.527344 C 1799.660156 1250.261719 1799.660156 1250.261719 1810 1265 C 1818.132812 1289.398438 1818.359375 1307.71875 1807.5 1331.25 C 1787.796875 1352.925781 1768.511719 1358.707031 1740.292969 1361.40625 C 1703.257812 1362.519531 1677.425781 1359.214844 1648.125 1335.3125 C 1639.894531 1324.867188 1636.863281 1318.042969 1635 1305 C 1644.898438 1301.699219 1654.800781 1298.398438 1665 1295 C 1668.09375 1299.023438 1671.1875 1303.042969 1674.375 1307.1875 C 1683.707031 1320.195312 1683.707031 1320.195312 1695 1325 C 1705.714844 1325.613281 1716.453125 1325.878906 1727.1875 1325.9375 C 1732.957031 1326.007812 1738.722656 1326.078125 1744.667969 1326.152344 C 1760.863281 1326.195312 1760.863281 1326.195312 1775 1315 C 1776.25 1299.582031 1776.25 1299.582031 1775 1285 C 1748.011719 1270.457031 1721.289062 1263.222656 1691.699219 1255.800781 C 1674.03125 1249.664062 1663.394531 1242.953125 1650 1230 C 1643.910156 1211.734375 1643.046875 1199.210938 1645 1180 C 1656.046875 1162.78125 1664.96875 1152.632812 1683.125 1143.125 C 1721.066406 1136.097656 1756.210938 1135.003906 1790 1155 Z M 1790 1155 "/>
<path style=" stroke:none;fill-rule:nonzero;fill:rgb(99.215686%,99.215686%,99.215686%);fill-opacity:1;" d="M 2160 1145 C 2173.199219 1145 2186.398438 1145 2200 1145 C 2215.078125 1174.113281 2227.800781 1203.523438 2239.6875 1234.0625 C 2252.453125 1266.464844 2265.578125 1298.507812 2280.449219 1330.019531 C 2285 1340 2285 1340 2290 1355 C 2285 1360 2285 1360 2270.3125 1360.625 C 2255 1360 2255 1360 2245 1355 C 2237.308594 1337.003906 2231.382812 1318.515625 2225 1300 C 2195.300781 1298.351562 2165.601562 1296.699219 2135 1295 C 2132.628906 1303.042969 2130.257812 1311.085938 2127.8125 1319.375 C 2120.625 1343.75 2120.625 1343.75 2115 1355 C 2103.449219 1355 2091.898438 1355 2080 1355 C 2092.078125 1309.027344 2110.351562 1265.714844 2128.4375 1221.875 C 2131.503906 1214.394531 2134.566406 1206.914062 2137.625 1199.433594 C 2145.058594 1181.277344 2152.523438 1163.136719 2160 1145 Z M 2180 1195 C 2165.222656 1219.457031 2154.460938 1243.03125 2145 1270 C 2153.957031 1270.136719 2162.917969 1270.230469 2171.875 1270.3125 C 2179.359375 1270.398438 2179.359375 1270.398438 2186.992188 1270.488281 C 2199.921875 1270.898438 2199.921875 1270.898438 2210 1265 C 2206.84375 1239.738281 2199.328125 1218.519531 2190 1195 C 2186.699219 1195 2183.398438 1195 2180 1195 Z M 2180 1195 "/>
<path style=" stroke:none;fill-rule:nonzero;fill:rgb(99.607843%,99.215686%,98.823529%);fill-opacity:1;" d="M 810 1145 C 823.199219 1145 836.398438 1145 850 1145 C 868.171875 1179.316406 882.5625 1214.960938 896.867188 1251.007812 C 900.960938 1261.304688 905.082031 1271.589844 909.210938 1281.875 C 931.082031 1336.691406 931.082031 1336.691406 935 1355 C 921.800781 1355 908.601562 1355 895 1355 C 892.472656 1347.824219 889.980469 1340.632812 887.5 1333.4375 C 886.109375 1329.433594 884.714844 1325.433594 883.28125 1321.308594 C 880 1310 880 1310 880 1295 C 848.648438 1295 817.300781 1295 785 1295 C 782.835938 1302.941406 780.667969 1310.882812 778.4375 1319.0625 C 773.621094 1336.722656 769.859375 1348.707031 755 1360 C 741.5625 1360.9375 741.5625 1360.9375 730 1360 C 730 1336.714844 737.238281 1320.160156 746.230469 1299.199219 C 747.882812 1295.269531 749.535156 1291.335938 751.238281 1287.285156 C 756.523438 1274.738281 761.851562 1262.210938 767.1875 1249.6875 C 772.492188 1237.140625 777.789062 1224.589844 783.082031 1212.035156 C 786.378906 1204.230469 789.683594 1196.425781 793 1188.628906 C 799.125 1174.1875 805.035156 1159.890625 810 1145 Z M 830 1180 C 817.945312 1209.863281 806.1875 1239.796875 795 1270 C 818.101562 1270 841.199219 1270 865 1270 C 856.089844 1239.445312 846.535156 1209.660156 835 1180 C 833.351562 1180 831.699219 1180 830 1180 Z M 830 1180 "/>
<path style=" stroke:none;fill-rule:nonzero;fill:rgb(99.607843%,99.215686%,99.215686%);fill-opacity:1;" d="M 1919.238281 1144.511719 C 1929.492188 1144.675781 1939.746094 1144.835938 1950 1145 C 1959.808594 1169.273438 1969.59375 1193.554688 1979.359375 1217.84375 C 1982.679688 1226.097656 1986.003906 1234.34375 1989.339844 1242.589844 C 1994.144531 1254.488281 1998.929688 1266.394531 2003.710938 1278.300781 C 2005.191406 1281.949219 2006.671875 1285.59375 2008.195312 1289.351562 C 2016.851562 1310.988281 2023.980469 1332.484375 2030 1355 C 2018.4375 1358.4375 2018.4375 1358.4375 2005 1360 C 1985.554688 1344.921875 1979.261719 1322.039062 1970 1300 C 1940.300781 1298.351562 1910.601562 1296.699219 1880 1295 C 1877.523438 1307.375 1877.523438 1307.375 1875 1320 C 1870.535156 1331.960938 1865.253906 1343.347656 1860 1355 C 1848.449219 1355 1836.898438 1355 1825 1355 C 1837.421875 1315.316406 1852.921875 1276.984375 1868.628906 1238.519531 C 1873.167969 1227.394531 1877.679688 1216.257812 1882.1875 1205.117188 C 1885.0625 1198.046875 1887.941406 1190.976562 1890.820312 1183.90625 C 1892.167969 1180.574219 1893.519531 1177.242188 1894.90625 1173.808594 C 1906.636719 1145.179688 1906.636719 1145.179688 1919.238281 1144.511719 Z M 1925 1195 C 1908.6875 1218.300781 1902.589844 1242.890625 1895 1270 C 1913.148438 1270 1931.300781 1270 1950 1270 C 1957.695312 1244.34375 1952.453125 1230.785156 1940.527344 1208.183594 C 1935.429688 1199.191406 1935.429688 1199.191406 1925 1195 Z M 1925 1195 "/>
<path style=" stroke:none;fill-rule:nonzero;fill:rgb(98.823529%,98.823529%,98.823529%);fill-opacity:1;" d="M 435 1125 C 458.707031 1142.324219 481.980469 1160.210938 505 1178.4375 C 509.742188 1182.167969 514.488281 1185.902344 519.375 1189.746094 C 522.882812 1193.128906 526.386719 1196.515625 530 1200 C 530 1204.949219 530 1209.898438 530 1215 C 518.75 1226.25 518.75 1226.25 505 1235 C 485.585938 1233.585938 475.09375 1222.515625 461.25 1209.6875 C 457.253906 1206.019531 453.257812 1202.351562 449.140625 1198.574219 C 446.125 1195.746094 443.109375 1192.914062 440 1190 C 437.34375 1191.992188 434.6875 1193.984375 431.953125 1196.035156 C 421.300781 1204.023438 410.652344 1212.011719 400 1220 C 394.703125 1224.214844 394.703125 1224.214844 389.296875 1228.515625 C 380 1235 380 1235 370 1234.6875 C 357.015625 1228.601562 349.234375 1220.882812 340 1210 C 340 1206.699219 340 1203.398438 340 1200 C 350.585938 1190.273438 350.585938 1190.273438 364.375 1179.375 C 368.898438 1175.753906 373.425781 1172.128906 378.085938 1168.398438 C 390 1160 390 1160 400 1160 C 400 1156.699219 400 1153.398438 400 1150 C 407.65625 1143.554688 407.65625 1143.554688 417.5 1136.875 C 420.75 1134.644531 423.996094 1132.414062 427.34375 1130.117188 C 429.871094 1128.429688 432.398438 1126.738281 435 1125 Z M 435 1125 "/>
<path style=" stroke:none;fill-rule:nonzero;fill:rgb(99.607843%,99.607843%,99.607843%);fill-opacity:1;" d="M 2305 1145 C 2316.550781 1145 2328.101562 1145 2340 1145 C 2341.648438 1214.300781 2343.300781 1283.601562 2345 1355 C 2331.800781 1356.648438 2318.601562 1358.300781 2305 1360 C 2301.046875 1346.144531 2299.472656 1334.214844 2299.890625 1319.828125 C 2299.992188 1315.925781 2300.09375 1312.023438 2300.195312 1308.003906 C 2300.332031 1303.839844 2300.464844 1299.679688 2300.605469 1295.390625 C 2300.722656 1291.089844 2300.839844 1286.789062 2300.964844 1282.359375 C 2301.34375 1268.65625 2301.765625 1254.953125 2302.1875 1241.25 C 2302.453125 1231.945312 2302.71875 1222.644531 2302.976562 1213.339844 C 2303.625 1190.558594 2304.300781 1167.78125 2305 1145 Z M 2305 1145 "/>
</g>
</svg>
